<svg xmlns="http://www.w3.org/2000/svg" width="0.76in" height="0.76in" viewBox="0 0 54.74 54.74"><defs><style>.cls-1,.cls-5{fill:#fff;}.cls-1,.cls-2{stroke:#15589f;}.cls-1{stroke-miterlimit:10;stroke-width:0.74px;}.cls-2,.cls-3{fill:#15589f;}.cls-2{stroke-linejoin:round;stroke-width:0.28px;}.cls-4{fill:#91ca6b;}</style></defs><title>cob-logo-color-screen</title><g id="Graphics"><circle id="Outer_Border" data-name="Outer Border" class="cls-1" cx="27.37" cy="27.37" r="27"/><polygon id="Right_Star" data-name="Right Star" class="cls-2" points="48.09 34.31 47.22 33.83 48.09 33.35 48.57 32.47 49.05 33.35 49.93 33.83 49.05 34.31 48.57 35.18 48.09 34.31"/><polygon id="Left_Star" data-name="Left Star" class="cls-2" points="6 34.31 5.12 33.83 6 33.35 6.47 32.47 6.96 33.35 7.83 33.83 6.96 34.31 6.47 35.18 6 34.31"/><path id="Bay" class="cls-3" d="M12.33,35.92a17.25,17.25,0,0,0,30-.07A47.11,47.11,0,0,0,27.45,33.5,47,47,0,0,0,12.33,35.92Z"/><path id="Ground" class="cls-4" d="M10.56,31.4a17.13,17.13,0,0,0,1.78,4.51A47,47,0,0,1,27.45,33.5a47.11,47.11,0,0,1,14.92,2.35,17.13,17.13,0,0,0,1.76-4.52,50.28,50.28,0,0,0-16.68-2.76A50.2,50.2,0,0,0,10.56,31.4Z"/><path id="Mountain" class="cls-5" d="M34,22,28.67,19.4a2.71,2.71,0,0,0-2.35,0L10.09,27.21c0,.07,0,.13,0,.2a17.29,17.29,0,0,0,.47,4,50.2,50.2,0,0,1,16.89-2.84,50.28,50.28,0,0,1,16.68,2.76,17.35,17.35,0,0,0,.34-5.83l-8.89-4.28Z"/><path id="Sky" class="cls-3" d="M27.34,10.16a17.25,17.25,0,0,0-17.24,17L26.32,19.4a2.71,2.71,0,0,1,2.35,0L34,22l1.57-.75,8.89,4.28A17.25,17.25,0,0,0,27.34,10.16Z"/></g><g id="Text"><g id="WASHINGTON"><path class="cls-3" d="M14,42.62l-3.61,1.77L10,43.93l1.35-2.37L8.8,42.64l-.45-.5,2.16-3.4.49.55L9.48,41.71l2.63-1.19.33.37L11,43.34l2.49-1.23Z"/><path class="cls-3" d="M14.85,47.91l-.59-.42.27-1-1.06-.75-.81.57-.6-.42,3.36-2.37L16,44Zm-.13-2.07.33-1.17-1,.7Z"/><path class="cls-3" d="M17.25,49.2a3.17,3.17,0,0,1-.65-.39,1.75,1.75,0,0,1-.39-.4l.41-.7a1.41,1.41,0,0,0,.33.47,2,2,0,0,0,.6.41q.63.29.81-.09a.41.41,0,0,0,0-.21.71.71,0,0,0,0-.19.81.81,0,0,0-.14-.21L18,47.7l-.21-.21-.18-.17-.17-.17a1.33,1.33,0,0,1-.16-.19l-.11-.19a.62.62,0,0,1-.07-.22,1.09,1.09,0,0,1,0-.23.89.89,0,0,1,.08-.26,1.14,1.14,0,0,1,.65-.6,1.39,1.39,0,0,1,1.1.11,2.71,2.71,0,0,1,.62.39,1.92,1.92,0,0,1,.39.41l-.37.63a2.46,2.46,0,0,0-.89-.79,1.25,1.25,0,0,0-.49-.12.32.32,0,0,0-.32.19.35.35,0,0,0,0,.37,3.07,3.07,0,0,0,.45.46l.23.23.22.22a1,1,0,0,1,.2.27,2.09,2.09,0,0,1,.11.28.78.78,0,0,1,0,.34,1.27,1.27,0,0,1-.11.36,1.46,1.46,0,0,1-.15.25,1,1,0,0,1-.24.22.92.92,0,0,1-.35.14,1.39,1.39,0,0,1-.48,0A2.49,2.49,0,0,1,17.25,49.2Z"/><path class="cls-3" d="M23.52,51.09l-.69-.16.38-1.63-1.78-.41L21,50.52l-.69-.16.87-3.77.69.16-.34,1.47,1.78.41.34-1.47.69.16Z"/><path class="cls-3" d="M26.15,51.31l-.71,0,.25-3.87.71,0Z"/><path class="cls-3" d="M31.1,51.1l-.58.05-2-2.48.24,2.65-.71.06-.35-3.86.71-.06,1.86,2.33L30,47.3l.71-.06Z"/><path class="cls-3" d="M34.76,50.27a1.8,1.8,0,0,1-1.46-.13,2,2,0,0,1-.94-1.24,2,2,0,0,1,.08-1.55,1.86,1.86,0,0,1,1.17-.94,3.33,3.33,0,0,1,.62-.12,2.18,2.18,0,0,1,.56,0l.13.67a2.83,2.83,0,0,0-1.09.1,1.07,1.07,0,0,0-.73.6,1.69,1.69,0,0,0,.58,1.84,1.11,1.11,0,0,0,1,.09,2.68,2.68,0,0,0,.49-.21l-.2-.65-.41.13-.17-.57,1.08-.33.51,1.65a2.14,2.14,0,0,1-.51.38A3.39,3.39,0,0,1,34.76,50.27Z"/><path class="cls-3" d="M38.46,45l-1,.51L39,48.37l-.63.33-1.49-2.82-1,.51-.32-.61,2.56-1.36Z"/><path class="cls-3" d="M43.4,44.67a2,2,0,0,1-2.13,1.74,2.25,2.25,0,0,1-1.84-2.26,2,2,0,0,1,2.13-1.74,2.25,2.25,0,0,1,1.84,2.26Zm-1.95-1.54a1.15,1.15,0,0,0-1.3,1.06,1.73,1.73,0,0,0,1.22,1.49,1.15,1.15,0,0,0,1.3-1.06,1.73,1.73,0,0,0-1.22-1.49Z"/><path class="cls-3" d="M47.32,40.86l-.35.46-3.18-.22,2.1,1.62-.43.56-3.07-2.37.43-.56,3,.22-2-1.52.43-.56Z"/></g><g id="CITY_OF_BELLINGHAM" data-name="CITY OF BELLINGHAM"><path class="cls-3" d="M7.65,25.79A1.86,1.86,0,0,1,7,27.15a2.06,2.06,0,0,1-1.52.46A2.06,2.06,0,0,1,4,27a1.86,1.86,0,0,1-.49-1.44,2.52,2.52,0,0,1,.3-1.11l.69.12a2.88,2.88,0,0,0-.29,1,1,1,0,0,0,.32.88,1.52,1.52,0,0,0,1,.36,1.52,1.52,0,0,0,1-.24A1,1,0,0,0,7,25.74a2.87,2.87,0,0,0-.16-1.06l.7,0A2.52,2.52,0,0,1,7.65,25.79Z"/><path class="cls-3" d="M8,22.89l-.15.71L4,22.77l.15-.71Z"/><path class="cls-3" d="M6.2,18,5.81,19l3.06,1.13-.25.68L5.56,19.73l-.39,1.05-.66-.24,1-2.78Z"/><path class="cls-3" d="M7.81,13.69,9,16l1.52.91-.37.62L8.62,16.6,6,16.64,6.43,16l1.85,0-.86-1.64Z"/><path class="cls-3" d="M14.89,11.24a2,2,0,0,1-2.1,1.87,2.06,2.06,0,0,1-1.4-.75,2.06,2.06,0,0,1-.58-1.47A2,2,0,0,1,12.91,9a2.06,2.06,0,0,1,1.4.75A2.06,2.06,0,0,1,14.89,11.24ZM12.84,9.75a1.18,1.18,0,0,0-1.28,1.14,1.52,1.52,0,0,0,.43.94,1.52,1.52,0,0,0,.88.54,1.18,1.18,0,0,0,1.28-1.14,1.52,1.52,0,0,0-.43-.93A1.52,1.52,0,0,0,12.84,9.75Z"/><path class="cls-3" d="M17,6.65l-1.49.85.42.73,1.15-.66.35.61-1.15.66.85,1.49-.63.36-2-3.43L16.69,6Z"/><path class="cls-3" d="M22.72,8.07l-1.48.37-1-3.84,1-.26.5-.1a2.18,2.18,0,0,1,.42,0,.85.85,0,0,1,.35.09.77.77,0,0,1,.26.23A1.19,1.19,0,0,1,23,5a1,1,0,0,1-.12.89,1.17,1.17,0,0,1,.6.22,1,1,0,0,1,.31.54,1.19,1.19,0,0,1,0,.58.88.88,0,0,1-.24.43,1.64,1.64,0,0,1-.39.28A2.16,2.16,0,0,1,22.72,8.07Zm-1-3.21L21.12,5l.24.95L22,5.79a.56.56,0,0,0,.3-.18.42.42,0,0,0,.05-.39.49.49,0,0,0-.23-.35A.65.65,0,0,0,21.74,4.86Zm.49,1.48-.73.18.29,1.16.69-.17A1,1,0,0,0,23,7.23a.52.52,0,0,0,.08-.49Q22.93,6.16,22.23,6.34Z"/><path class="cls-3" d="M27.72,7.47l-2.59.14-.22-4,2.53-.14,0,.7-1.78.1,0,.84,1.38-.07,0,.7-1.38.08.06,1,1.83-.1Z"/><path class="cls-3" d="M31.12,7.83l-2.33-.28.48-3.93L30,3.7l-.39,3.23,1.62.2Z"/><path class="cls-3" d="M34.29,8.71,32,8l1.12-3.8.69.2-.92,3.12L34.48,8Z"/><path class="cls-3" d="M35.83,9.41l-.66-.3L36.79,5.5l.66.3Z"/><path class="cls-3" d="M39.65,11.7l-.49-.33V8.11l-1.5,2.26L37,10l2.19-3.3.6.4v3L41.23,8l.6.4Z"/><path class="cls-3" d="M41.76,13.81a1.84,1.84,0,0,1-.56-1.39A2.07,2.07,0,0,1,41.9,11a2,2,0,0,1,1.45-.64,1.9,1.9,0,0,1,1.4.63,3.39,3.39,0,0,1,.4.5,2.23,2.23,0,0,1,.26.51l-.55.42a2.89,2.89,0,0,0-.6-.94,1.09,1.09,0,0,0-.89-.39A1.72,1.72,0,0,0,42,12.46a1.13,1.13,0,0,0,.37.92,2.74,2.74,0,0,0,.42.35l.5-.48-.3-.31.43-.42.81.83-1.27,1.23a2.18,2.18,0,0,1-.58-.29A3.47,3.47,0,0,1,41.76,13.81Z"/><path class="cls-3" d="M45.17,18.43l-.38-.62,1.46-.89-1-1.59-1.46.89-.38-.62,3.38-2.06.38.62-1.32.8,1,1.59,1.32-.8.38.62Z"/><path class="cls-3" d="M46.67,22.52l-.24-.71.8-.62-.42-1.26-1,0-.24-.71,4.2.08.22.65Zm1.15-1.78,1-.76-1.24,0Z"/><path class="cls-3" d="M47.33,27.34l-.08-.72L49.93,26l-2-.84L49.64,24,47,23.93l-.08-.74,4,.1.06.6-1.69,1.17,1.89.77.06.59Z"/></g></g></svg>