<svg id="Layer_1" data-name="Layer 1" xmlns="http://www.w3.org/2000/svg" viewBox="0 0 353.3 201.94"><defs><style>.cls-1{fill:#2F5547;}.cls-2{fill:#5A5A5A;}</style></defs><path class="cls-1" d="M50.9,51.05l27.58,59.18V85.47c-.16,0-.32,0-.49,0a7.36,7.36,0,0,1-7.32-6.77c0-.2-.06-.4-.06-.61A7.39,7.39,0,0,1,78,70.76a4.69,4.69,0,0,1,.54.06,7.35,7.35,0,0,1,6.84,7.32,6,6,0,0,1-.06.61h25Z"/><polygon class="cls-1" points="94.44 94.06 115.41 94.06 131.66 157.73 131.97 157.73 131.97 94.06 146.86 94.06 146.86 200.42 129.69 200.42 109.63 122.78 109.33 122.78 109.33 200.42 94.44 200.42 94.44 94.06"/><polygon class="cls-1" points="155.35 94.06 171.45 94.06 178.9 175.81 179.21 175.81 187.11 94.06 205.33 94.06 213.23 175.81 213.54 175.81 220.99 94.06 235.42 94.06 224.63 200.42 203.82 200.42 196.22 128.71 195.91 128.71 188.32 200.42 166.13 200.42 155.35 94.06"/><path class="cls-2" d="M266.7,139.64c6.23,0,10-2.73,10-11.24v-8.2c0-7.6-2.59-10.94-8.52-10.94h-7.59v30.38ZM243.91,94.06h24.76c17.32,0,24.77,8.06,24.77,24.47v6.53c0,10.94-3.49,17.93-10.94,21v.3c8.36,2.58,11.09,10.49,11.09,22.49v18.69c0,5.16.16,9,1.83,12.91h-17c-.91-2.73-1.52-4.4-1.52-13.07V167.91c0-9.88-2.89-13.07-10.48-13.07h-5.78v45.58H243.91Z"/><path class="cls-2" d="M304.07,175.81V118.68c0-16.41,8.5-26.14,24.61-26.14s24.62,9.73,24.62,26.14v11.24H337.49V117.61c0-7-3.34-9.87-8.36-9.87s-8.35,2.89-8.35,9.87V177c0,7,3.34,9.73,8.35,9.73s8.36-2.74,8.36-9.73V160.76H353.3v15.05c0,16.41-8.52,26.13-24.62,26.13s-24.61-9.72-24.61-26.13"/><path class="cls-2" d="M148.77,71.57a71.93,71.93,0,0,0-15.53-37.51c.06-.26.37-10.48.37-10.48s-10.2.31-10.48.38A71.26,71.26,0,0,0,95.2,10.11V24.68c23,6.36,40.58,30.71,39.86,54h22.13Z"/><path class="cls-2" d="M38.48,118.71a56.09,56.09,0,0,1-14-23.28H9.88a71.53,71.53,0,0,0,13.85,27.93c-.09.39-.38,10.48-.38,10.48s10-.27,10.48-.38A71.94,71.94,0,0,0,71.34,149c.29.46,6.63,7.61,7.14,8.42V135.29a56.37,56.37,0,0,1-40-16.58"/><path class="cls-2" d="M71.34,8.42A71.86,71.86,0,0,0,33.83,24c-.24-.06-10.48-.38-10.48-.38s.31,10.18.38,10.48A71.94,71.94,0,0,0,8.19,71.57C7.77,71.84.77,78.2,0,78.71H21.91c-1.23-29.56,27-57.8,56.57-56.58V0Z"/></svg>